<svg width="25" height="24" viewBox="0 0 25 24" fill="none" xmlns="http://www.w3.org/2000/svg">
<g clip-path="url(#clip0_204_2184)">
<mask id="path-1-inside-1_204_2184" fill="white">
<path fill-rule="evenodd" clip-rule="evenodd" d="M14.8789 3V5H4.87891V18.385L6.64191 17H20.8789V10H22.8789V18C22.8789 18.5523 22.4312 19 21.8789 19H7.33391L2.87891 22.5V4C2.87891 3.44772 3.32662 3 3.87891 3H14.8789ZM19.8789 3V0H21.8789V3H24.8789V5H21.8789V8H19.8789V5H16.8789V3H19.8789Z"/>
</mask>
<path fill-rule="evenodd" clip-rule="evenodd" d="M14.8789 3V5H4.87891V18.385L6.64191 17H20.8789V10H22.8789V18C22.8789 18.5523 22.4312 19 21.8789 19H7.33391L2.87891 22.5V4C2.87891 3.44772 3.32662 3 3.87891 3H14.8789ZM19.8789 3V0H21.8789V3H24.8789V5H21.8789V8H19.8789V5H16.8789V3H19.8789Z" fill="#183443"/>
<path d="M14.8789 3H15.8789V2H14.8789V3ZM14.8789 5V6H15.8789V5H14.8789ZM4.87891 5V4H3.87891V5H4.87891ZM4.87891 18.385H3.87891V20.4423L5.49667 19.1714L4.87891 18.385ZM6.64191 17V16H6.29609L6.02414 16.2136L6.64191 17ZM20.8789 17V18H21.8789V17H20.8789ZM20.8789 10V9H19.8789V10H20.8789ZM22.8789 10H23.8789V9H22.8789V10ZM7.33391 19V18H6.98807L6.71612 18.2137L7.33391 19ZM2.87891 22.5H1.87891V24.5573L3.49669 23.2863L2.87891 22.5ZM19.8789 3V4H20.8789V3H19.8789ZM19.8789 0V-1H18.8789V0H19.8789ZM21.8789 0H22.8789V-1H21.8789V0ZM21.8789 3H20.8789V4H21.8789V3ZM24.8789 3H25.8789V2H24.8789V3ZM24.8789 5V6H25.8789V5H24.8789ZM21.8789 5V4H20.8789V5H21.8789ZM21.8789 8V9H22.8789V8H21.8789ZM19.8789 8H18.8789V9H19.8789V8ZM19.8789 5H20.8789V4H19.8789V5ZM16.8789 5H15.8789V6H16.8789V5ZM16.8789 3V2H15.8789V3H16.8789ZM13.8789 3V5H15.8789V3H13.8789ZM14.8789 4H4.87891V6H14.8789V4ZM3.87891 5V18.385H5.87891V5H3.87891ZM5.49667 19.1714L7.25967 17.7864L6.02414 16.2136L4.26114 17.5986L5.49667 19.1714ZM6.64191 18H20.8789V16H6.64191V18ZM21.8789 17V10H19.8789V17H21.8789ZM20.8789 11H22.8789V9H20.8789V11ZM21.8789 10V18H23.8789V10H21.8789ZM21.8789 18V20C22.9835 20 23.8789 19.1046 23.8789 18H21.8789ZM21.8789 18H7.33391V20H21.8789V18ZM6.71612 18.2137L2.26112 21.7137L3.49669 23.2863L7.95169 19.7863L6.71612 18.2137ZM3.87891 22.5V4H1.87891V22.5H3.87891ZM3.87891 4V2C2.77434 2 1.87891 2.89543 1.87891 4H3.87891ZM3.87891 4H14.8789V2H3.87891V4ZM20.8789 3V0H18.8789V3H20.8789ZM19.8789 1H21.8789V-1H19.8789V1ZM20.8789 0V3H22.8789V0H20.8789ZM21.8789 4H24.8789V2H21.8789V4ZM23.8789 3V5H25.8789V3H23.8789ZM24.8789 4H21.8789V6H24.8789V4ZM20.8789 5V8H22.8789V5H20.8789ZM21.8789 7H19.8789V9H21.8789V7ZM20.8789 8V5H18.8789V8H20.8789ZM19.8789 4H16.8789V6H19.8789V4ZM17.8789 5V3H15.8789V5H17.8789ZM16.8789 4H19.8789V2H16.8789V4Z" fill="#183443" mask="url(#path-1-inside-1_204_2184)"/>
</g>
<defs>
<clipPath id="clip0_204_2184">
<rect width="24" height="24" fill="white" transform="translate(0.878906)"/>
</clipPath>
</defs>
</svg>
