<svg width="25" height="25" viewBox="0 0 25 25" fill="none" xmlns="http://www.w3.org/2000/svg">
<g clip-path="url(#clip0_204_2095)">
<mask id="path-1-inside-1_204_2095" fill="white">
<path fill-rule="evenodd" clip-rule="evenodd" d="M20.1078 19.3779L21.8758 17.6099L23.6428 19.3779C24.358 20.0928 24.572 21.1682 24.1851 22.1025C23.7982 23.0368 22.8865 23.6459 21.8753 23.6459C20.8641 23.6459 19.9525 23.0368 19.5655 22.1025C19.1786 21.1682 19.3927 20.0928 20.1078 19.3779ZM9.75782 1.7259L21.0718 13.0389C21.2596 13.2265 21.3651 13.481 21.3651 13.7464C21.3651 14.0118 21.2596 14.2663 21.0718 14.4539L12.5868 22.9389C12.1963 23.3293 11.5633 23.3293 11.1728 22.9389L2.68782 14.4539C2.50004 14.2663 2.39453 14.0118 2.39453 13.7464C2.39453 13.481 2.50004 13.2265 2.68782 13.0389L10.4658 5.2609L8.34382 3.1399L9.75982 1.7259H9.75782ZM11.8798 6.6759L4.80882 13.7459L11.8798 20.8189L18.9508 13.7479L11.8798 6.6749V6.6759Z"/>
</mask>
<path fill-rule="evenodd" clip-rule="evenodd" d="M20.1078 19.3779L21.8758 17.6099L23.6428 19.3779C24.358 20.0928 24.572 21.1682 24.1851 22.1025C23.7982 23.0368 22.8865 23.6459 21.8753 23.6459C20.8641 23.6459 19.9525 23.0368 19.5655 22.1025C19.1786 21.1682 19.3927 20.0928 20.1078 19.3779ZM9.75782 1.7259L21.0718 13.0389C21.2596 13.2265 21.3651 13.481 21.3651 13.7464C21.3651 14.0118 21.2596 14.2663 21.0718 14.4539L12.5868 22.9389C12.1963 23.3293 11.5633 23.3293 11.1728 22.9389L2.68782 14.4539C2.50004 14.2663 2.39453 14.0118 2.39453 13.7464C2.39453 13.481 2.50004 13.2265 2.68782 13.0389L10.4658 5.2609L8.34382 3.1399L9.75982 1.7259H9.75782ZM11.8798 6.6759L4.80882 13.7459L11.8798 20.8189L18.9508 13.7479L11.8798 6.6749V6.6759Z" fill="#183443"/>
<path d="M20.1078 19.3779L20.8148 20.0851L20.8149 20.085L20.1078 19.3779ZM21.8758 17.6099L22.5831 16.903L21.876 16.1955L21.1687 16.9028L21.8758 17.6099ZM23.6428 19.3779L22.9355 20.0848L22.9358 20.0851L23.6428 19.3779ZM9.75782 1.7259V0.725904H7.34345L9.05074 2.43304L9.75782 1.7259ZM21.0718 13.0389L20.3647 13.746L20.3651 13.7464L21.0718 13.0389ZM21.0718 14.4539L20.3651 13.7464L20.3647 13.7468L21.0718 14.4539ZM12.5868 22.9389L13.2938 23.6461L13.2939 23.646L12.5868 22.9389ZM11.1728 22.9389L10.4657 23.646L10.4658 23.6461L11.1728 22.9389ZM2.68782 14.4539L3.39492 13.7468L3.39453 13.7464L2.68782 14.4539ZM2.68782 13.0389L3.39453 13.7464L3.39492 13.746L2.68782 13.0389ZM10.4658 5.2609L11.1729 5.96801L11.8802 5.26074L11.1728 4.55363L10.4658 5.2609ZM8.34382 3.1399L7.63721 2.4323L6.92894 3.13957L7.63688 3.84718L8.34382 3.1399ZM9.75982 1.7259L10.4664 2.43351L12.1764 0.725904H9.75982V1.7259ZM11.8798 6.6759L12.5869 7.38306L12.8798 7.09016V6.6759H11.8798ZM4.80882 13.7459L4.10176 13.0387L3.39465 13.7458L4.10161 14.4529L4.80882 13.7459ZM11.8798 20.8189L11.1726 21.5259L11.8797 22.2332L12.5869 21.526L11.8798 20.8189ZM18.9508 13.7479L19.6579 14.455L20.3649 13.748L19.658 13.0409L18.9508 13.7479ZM11.8798 6.6749L12.587 5.9679L10.8798 4.26021V6.6749H11.8798ZM20.8149 20.085L22.5829 18.317L21.1687 16.9028L19.4007 18.6708L20.8149 20.085ZM21.1685 18.3168L22.9355 20.0848L24.3501 18.671L22.5831 16.903L21.1685 18.3168ZM22.9358 20.0851C23.3649 20.5141 23.4933 21.1593 23.2612 21.7199L25.109 22.4851C25.6507 21.1771 25.351 19.6716 24.3498 18.6707L22.9358 20.0851ZM23.2612 21.7199C23.029 22.2804 22.4821 22.6459 21.8753 22.6459V24.6459C23.291 24.6459 24.5673 23.7931 25.109 22.4851L23.2612 21.7199ZM21.8753 22.6459C21.2686 22.6459 20.7216 22.2804 20.4895 21.7199L18.6416 22.4851C19.1833 23.7931 20.4596 24.6459 21.8753 24.6459V22.6459ZM20.4895 21.7199C20.2573 21.1593 20.3857 20.5141 20.8148 20.0851L19.4008 18.6707C18.3996 19.6716 18.1 21.1771 18.6416 22.4851L20.4895 21.7199ZM9.05074 2.43304L20.3647 13.746L21.7789 12.3318L10.4649 1.01877L9.05074 2.43304ZM20.3651 13.7464H22.3651C22.3651 13.2156 22.1541 12.7065 21.7785 12.3314L20.3651 13.7464ZM20.3651 13.7464V13.7464L21.7785 15.1614C22.1541 14.7863 22.3651 14.2772 22.3651 13.7464H20.3651ZM20.3647 13.7468L11.8797 22.2318L13.2939 23.646L21.7789 15.161L20.3647 13.7468ZM11.8798 22.2317L10.4658 23.6461C11.2468 24.4269 12.5128 24.4269 13.2938 23.6461L11.8798 22.2317ZM11.8799 22.2318L3.39492 13.7468L1.98071 15.161L10.4657 23.646L11.8799 22.2318ZM3.39453 13.7464V13.7464H1.39453C1.39453 14.2772 1.60555 14.7863 1.9811 15.1614L3.39453 13.7464ZM3.39453 13.7464L1.9811 12.3314C1.60555 12.7065 1.39453 13.2156 1.39453 13.7464H3.39453ZM3.39492 13.746L11.1729 5.96801L9.75871 4.5538L1.98071 12.3318L3.39492 13.746ZM11.1728 4.55363L9.05076 2.43263L7.63688 3.84718L9.75888 5.96818L11.1728 4.55363ZM9.05042 3.84751L10.4664 2.43351L9.05321 1.0183L7.63721 2.4323L9.05042 3.84751ZM9.75982 0.725904H9.75782V2.7259H9.75982V0.725904ZM11.1728 5.96875L4.10176 13.0387L5.51587 14.4531L12.5869 7.38306L11.1728 5.96875ZM4.10161 14.4529L11.1726 21.5259L12.587 20.1119L5.51602 13.0389L4.10161 14.4529ZM12.5869 21.526L19.6579 14.455L18.2437 13.0408L11.1727 20.1118L12.5869 21.526ZM19.658 13.0409L12.587 5.9679L11.1726 7.38191L18.2436 14.4549L19.658 13.0409ZM10.8798 6.6749V6.6759H12.8798V6.6749H10.8798Z" fill="#183443" mask="url(#path-1-inside-1_204_2095)"/>
</g>
<defs>
<clipPath id="clip0_204_2095">
<rect width="24" height="24" fill="white" transform="translate(0.878906 0.645874)"/>
</clipPath>
</defs>
</svg>
